<?xml version="1.0" encoding="UTF-8"?>
<svg id="Camada_2" data-name="Camada 2" xmlns="http://www.w3.org/2000/svg" viewBox="0 0 996.64 302.23">
  <defs>
    <style>
      .cls-1 {
        fill: #fff;
      }

      .cls-2 {
        fill: #ff7300;
      }

      .cls-3 {
        fill: #062260;
      }
    </style>
  </defs>
  <g id="Camada_1-2" data-name="Camada 1">
    <g>
      <rect class="cls-3" width="996.64" height="302.23"/>
      <g>
        <g>
          <path class="cls-1" d="M473.53,93.79h27.2v117.2c0,1.69-1.37,3.07-3.07,3.07h-21.06c-1.69,0-3.07-1.37-3.07-3.07V93.79h0Z"/>
          <path class="cls-1" d="M332.87,167.69c2.1,9.66,6.78,17.08,15.63,21.46,7.29,3.61,15.08,3.77,22.95,3.09,7.2-.62,13.74-3.12,19.74-7.13,.86-.58,1.86-.97,2.84-1.35,1.71-.66,3.32-.24,4.35,1.18,2.88,3.97,5.72,7.97,8.34,12.1,1.36,2.15,.7,3.94-1.23,5.56-20.44,17.12-51.61,16.85-69.89,7.03-16.47-8.85-26.24-22.66-29.55-40.89-3.05-16.79-.13-32.63,9.99-46.56,12.64-17.39,30.05-25.21,51.46-23.79,24.09,1.6,40.26,17.37,46.13,40.13,2.14,8.32,2.52,16.79,2.25,25.32-.08,2.57-1.07,3.52-3.66,3.76-.86,.08-1.74,.08-2.6,.08-24.72,0-49.44,0-74.16,0-.79,0-1.58,0-2.6,0Zm56.31-19.68c-.18-1.25-.28-2.36-.5-3.44-1.49-7.54-4.55-14.2-11.05-18.73-11.6-8.09-29.89-4.8-38.56,6.83-3.4,4.55-5.43,9.65-6.36,15.35h56.47Z"/>
          <path class="cls-1" d="M153.14,108.1c5.27-5.09,16.92-12.78,40.43-9.04,17.03,3.33,27.02,13.9,30.17,32.02,.97,5.6,1.43,11.34,1.48,17.03,.17,20.06,.07,40.12,.07,60.17,0,.62,.01,1.24-.04,1.86-.23,2.73-1.26,3.83-4,3.86-6.33,.07-12.67,.07-19,0-3.09-.03-4.15-1.33-4.15-4.88-.01-18.07,0-36.14-.02-54.21,0-3.22-.04-6.47-.37-9.67-.68-6.56-2.49-12.73-7.77-17.19-10.59-8.94-28.07-4.92-34.42,7.83-2.72,5.47-3.59,11.3-3.59,17.33,0,18.2,0,36.39,0,54.59,0,5.57-.65,6.23-6.16,6.23-5.4,0-10.81,.02-16.21,0-3.7-.02-4.81-1.09-4.82-4.78-.02-34.71-.02-69.43,0-104.14,0-3.6,1.13-4.69,4.68-4.73,0,0,15.8-.01,18.47,0,2.2,0,4.96,.35,5.09,3.32,0,0,.25,4.21,.16,4.39Z"/>
          <path class="cls-1" d="M264.55,100.38c6.83,0,13.35,0,19.87,0,3.23,0,6.46-.01,9.69,0,4.11,.02,5.04,.94,5.06,5.05,.02,4.41,0,8.82,0,13.23,0,5.33-.72,6.06-5.97,6.07-8.76,0-17.52,0-26.27,0-.73,0-1.46,0-2.38,0,0,.83,0,1.43,0,2.03,0,16.15-.05,32.3,.05,48.45,.02,3.01,.37,6.09,1.08,9.01,1.08,4.43,4.16,6.68,8.71,7.12,5.91,.57,11.46-.72,16.85-3.02,3.01-1.28,3.62-.96,4.86,2.12,1.9,4.72,3.8,9.43,5.69,14.15,1.21,3.03,.81,4.18-2.02,5.8-8.95,5.14-18.68,6.39-28.77,5.69-5.49-.38-10.79-1.59-15.73-4.12-7.85-4.02-12.72-10.48-15.4-18.75-1.96-6.03-2.5-12.26-2.51-18.56-.02-15.84,0-31.68,0-47.51,0-.73-.07-46.55,0-47.47,.15-1.96,1.22-3.05,3.16-3.29,.61-.08,1.23-.16,1.85-.16,5.4-.01,11.82-.03,17.22,0,3.94,.02,4.95,1.06,4.96,5.01,.02,5.65,0,11.3,0,16.96,0,.67,0,1.33,0,2.2Z"/>
          <path class="cls-1" d="M456.73,132.13c0,25.14,0,50.29,0,75.43,0,.74,0,1.49-.02,2.23-.09,3.01-1.18,4.19-4.21,4.22-6.27,.06-12.54,.06-18.81,0-2.91-.03-3.97-1.17-4.13-4.12-.04-.68-.02-1.37-.02-2.05,0-50.47,0-100.95,0-151.42,0-5.51,.72-6.24,6.19-6.25,5.22,0,10.43-.03,15.65,.01,4.43,.04,5.35,.99,5.35,5.39,0,25.52,0,51.03,0,76.55Z"/>
          <path class="cls-1" d="M83.54,137.65c0-23.1,0-46.2,0-69.3,0-.68,0-1.37,0-2.05,.06-3.56,1.14-4.65,4.74-4.66,6.09-.03,12.17-.03,18.26,0,3.76,.02,4.84,1.12,4.87,4.94,.04,5.46,.01,10.93,.01,16.39,0,41.54,0,83.09,0,124.63,0,5.77-.66,6.44-6.38,6.44-5.28,0-10.56,0-15.84,0-4.82,0-5.67-.84-5.67-5.6,0-23.6,0-47.2,0-70.79Z"/>
        </g>
        <g>
          <path class="cls-2" d="M509.4,68.9c0,12.34-10.01,22.3-22.36,22.26-12.4-.04-22.33-10.07-22.19-22.41,.13-12.35,9.91-22.11,22.21-22.17,12.27-.06,22.35,10.01,22.34,22.32Z"/>
          <g>
            <path class="cls-2" d="M600.04,155.03c-.05-33.47,25.39-59.02,58.86-59.11,33.51-.09,59.07,25.44,59.12,59.03,.05,33.47-25.41,59.03-58.86,59.1-33.54,.07-59.07-25.42-59.12-59.03Zm90.35-.79c-.14-1.4-.25-3.83-.63-6.21-2.49-15.56-14-27.03-30.03-27.23-11.11-.14-20.04,4.16-26.28,13.44-5.33,7.93-6.71,16.79-5.59,26.15,1.7,14.27,11.36,26.57,26.71,28.52,9.8,1.25,18.63-1.1,25.82-8.18,7.1-6.98,9.73-15.78,9.99-26.49Z"/>
            <path class="cls-2" d="M795.13,154.95c.05-33.6,25.6-59.1,59.12-59.03,33.45,.08,58.88,25.62,58.86,59.11-.03,33.57-25.61,59.11-59.13,59.02-33.47-.09-58.9-25.63-58.85-59.11Zm90.33-.8c-.12-1.27-.27-3.75-.62-6.2-2.28-15.83-14.25-26.73-30.1-27.12-11.03-.27-19.92,4.12-26.14,13.32-5.39,7.97-6.79,16.9-5.64,26.32,1.94,15.97,13.65,28.5,30.49,28.73,9.9,.13,18.18-3.36,24.46-11.14,5.33-6.61,7.36-14.35,7.56-23.9Z"/>
            <path class="cls-2" d="M756.03,98.16c6.83,0,13.35,0,19.87,0,3.23,0,6.46-.01,9.69,0,4.11,.02,5.04,.94,5.06,5.05,.02,4.41,0,8.82,0,13.23,0,5.33-.72,6.06-5.97,6.07-8.76,0-17.52,0-26.27,0-.73,0-1.46,0-2.38,0,0,.83,0,1.43,0,2.03,0,16.15-.05,32.3,.05,48.45,.02,3.01,.37,6.09,1.08,9.01,1.08,4.43,4.16,6.68,8.71,7.12,5.91,.57,11.46-.72,16.85-3.02,3.01-1.28,3.62-.96,4.86,2.12,1.9,4.72,3.8,9.43,5.69,14.15,1.21,3.03,.81,4.18-2.02,5.8-8.95,5.14-18.68,6.39-28.77,5.69-5.49-.38-10.79-1.59-15.73-4.12-7.85-4.02-12.72-10.48-15.4-18.75-1.96-6.03-2.5-12.26-2.51-18.56-.02-15.84,0-31.68,0-47.51,0-.73-.07-46.55,0-47.47,.15-1.96,1.22-3.05,3.16-3.29,.61-.08,1.23-.16,1.85-.16,5.4-.01,11.82-.03,17.22,0,3.94,.02,4.95,1.06,4.96,5.01,.02,5.65,0,11.3,0,16.96,0,.67,0,1.33,0,2.2Z"/>
          </g>
          <path class="cls-2" d="M611.74,59.4c-8.53-.03-17.05-.01-25.58,0-5.76,0-6.8,.76-8.3,6.26,0,0-28.18,108.87-28.5,110.05l-38.46-81.91h-37.38l52.46,114.98c1.32,4.3,2.71,5.27,7.23,5.28,10.5,.02,21,0,31.51,0,5.58,0,6.8-.89,8.44-6.26l42.16-143.67c1.12-3.68,.36-4.7-3.57-4.72Z"/>
        </g>
        <g>
          <path class="cls-1" d="M83.54,255.41v-21.28h7.81c1.75,0,3.25,.29,4.49,.88,1.24,.59,2.19,1.44,2.86,2.55,.67,1.12,1,2.44,1,3.98s-.33,2.86-1,3.97c-.67,1.11-1.62,1.96-2.86,2.55-1.24,.6-2.74,.9-4.49,.9h-6.23l1.29-1.43v7.87h-2.86Zm2.86-7.57l-1.29-1.52h6.15c1.83,0,3.22-.42,4.16-1.25,.94-.83,1.42-2.01,1.42-3.53s-.47-2.7-1.42-3.53c-.94-.83-2.33-1.25-4.16-1.25h-6.15l1.29-1.52v12.59Z"/>
          <path class="cls-1" d="M109.33,255.41v-21.28h2.86v18.64h10.84v2.65h-13.7Z"/>
          <path class="cls-1" d="M128.44,255.41l9.07-21.28h2.83l9.09,21.28h-3l-8.09-19.58h1.14l-8.09,19.58h-2.95Zm3.86-5.32l.77-2.43h11.27l.83,2.43h-12.87Z"/>
          <path class="cls-1" d="M161.53,255.41v-18.64h-6.86v-2.65h16.56v2.65h-6.86v18.64h-2.83Z"/>
          <path class="cls-1" d="M176.45,255.41l9.07-21.28h2.83l9.09,21.28h-3l-8.09-19.58h1.14l-8.09,19.58h-2.95Zm3.86-5.32l.77-2.43h11.27l.83,2.43h-12.87Z"/>
          <path class="cls-1" d="M208.43,255.41h-2.86v-21.28h14.13v2.65h-11.27v18.64Zm-.29-11.22h10.32v2.62h-10.32v-2.62Z"/>
          <path class="cls-1" d="M237.91,255.65c-1.53,0-2.94-.27-4.25-.82-1.31-.55-2.44-1.31-3.39-2.29-.95-.98-1.7-2.13-2.23-3.45-.53-1.32-.8-2.76-.8-4.32s.27-3,.8-4.32,1.28-2.47,2.23-3.45c.95-.98,2.08-1.75,3.37-2.29s2.72-.82,4.26-.82,2.94,.27,4.23,.81c1.3,.54,2.42,1.3,3.38,2.28,.95,.98,1.69,2.14,2.22,3.47,.52,1.33,.79,2.77,.79,4.33s-.26,3.03-.79,4.35c-.52,1.32-1.26,2.47-2.22,3.45-.95,.98-2.08,1.74-3.38,2.28-1.3,.54-2.71,.81-4.23,.81Zm-.03-2.71c1.12,0,2.16-.2,3.1-.61s1.76-.98,2.46-1.72c.7-.74,1.24-1.61,1.63-2.6,.39-.99,.59-2.08,.59-3.25s-.2-2.25-.59-3.24c-.39-.98-.93-1.85-1.63-2.6-.7-.75-1.52-1.33-2.46-1.73s-1.98-.61-3.1-.61-2.13,.2-3.07,.61c-.94,.41-1.77,.98-2.47,1.73-.71,.75-1.25,1.62-1.64,2.6-.39,.98-.59,2.06-.59,3.24s.2,2.26,.59,3.25,.94,1.86,1.64,2.6c.71,.74,1.53,1.31,2.47,1.72,.94,.41,1.97,.61,3.07,.61Z"/>
          <path class="cls-1" d="M258.05,255.41v-21.28h7.81c1.75,0,3.25,.29,4.49,.88,1.24,.59,2.19,1.44,2.86,2.55,.67,1.12,1,2.44,1,3.98s-.33,2.86-1,3.97c-.67,1.11-1.62,1.95-2.86,2.54-1.24,.59-2.74,.88-4.49,.88h-6.23l1.29-1.4v7.87h-2.86Zm2.86-7.57l-1.29-1.49h6.15c1.83,0,3.22-.42,4.16-1.26,.94-.84,1.42-2.02,1.42-3.54s-.47-2.7-1.42-3.53c-.94-.83-2.33-1.25-4.16-1.25h-6.15l1.29-1.52v12.59Zm10.52,7.57l-5.09-7.72h3.06l5.15,7.72h-3.12Z"/>
          <path class="cls-1" d="M283.99,255.41v-21.28h2.35l8.98,16.08h-1.26l8.87-16.08h2.35l.03,21.28h-2.75l-.03-16.69h.66l-7.89,14.11h-1.32l-7.95-14.11h.71v16.69h-2.75Z"/>
          <path class="cls-1" d="M313.42,255.41l9.07-21.28h2.83l9.09,21.28h-3l-8.09-19.58h1.14l-8.09,19.58h-2.95Zm3.86-5.32l.77-2.43h11.27l.83,2.43h-12.87Z"/>
          <path class="cls-1" d="M355.37,255.41v-21.28h8.44c2.13,0,4.02,.45,5.65,1.34,1.63,.89,2.9,2.14,3.8,3.74,.91,1.6,1.36,3.46,1.36,5.56s-.45,3.96-1.36,5.56c-.91,1.6-2.17,2.85-3.8,3.74-1.63,.89-3.51,1.34-5.65,1.34h-8.44Zm2.86-2.65h5.41c1.66,0,3.09-.33,4.3-1,1.21-.67,2.15-1.61,2.82-2.81,.67-1.21,1-2.6,1-4.18s-.33-3-1-4.2c-.67-1.2-1.61-2.13-2.82-2.8-1.21-.67-2.65-1-4.3-1h-5.41v15.99Z"/>
          <path class="cls-1" d="M387,252.77h11.67v2.65h-14.53v-21.28h14.13v2.65h-11.27v15.99Zm-.26-9.46h10.3v2.58h-10.3v-2.58Z"/>
          <path class="cls-1" d="M421.29,255.41v-21.28h2.86v21.28h-2.86Z"/>
          <path class="cls-1" d="M435.31,255.41v-21.28h2.35l13.24,17.48h-1.23v-17.48h2.86v21.28h-2.35l-13.24-17.48h1.23v17.48h-2.86Z"/>
          <path class="cls-1" d="M467.65,255.41v-18.64h-6.86v-2.65h16.56v2.65h-6.86v18.64h-2.83Z"/>
          <path class="cls-1" d="M488.47,252.77h11.67v2.65h-14.53v-21.28h14.13v2.65h-11.27v15.99Zm-.26-9.46h10.3v2.58h-10.3v-2.58Z"/>
          <path class="cls-1" d="M509.92,255.41v-21.28h2.86v18.64h10.84v2.65h-13.7Z"/>
          <path class="cls-1" d="M532.06,255.41v-21.28h2.86v21.28h-2.86Z"/>
          <path class="cls-1" d="M555.11,255.65c-1.54,0-2.96-.27-4.26-.81-1.3-.54-2.42-1.3-3.38-2.28-.95-.98-1.7-2.13-2.23-3.45-.53-1.32-.8-2.77-.8-4.35s.27-3.03,.8-4.35c.53-1.32,1.28-2.47,2.25-3.45,.96-.98,2.09-1.74,3.39-2.28,1.3-.54,2.73-.81,4.29-.81s3.03,.27,4.35,.82,2.43,1.37,3.35,2.46l-1.77,1.88c-.82-.85-1.71-1.47-2.67-1.87-.96-.4-2.01-.59-3.13-.59s-2.21,.2-3.19,.61c-.98,.41-1.83,.97-2.55,1.7s-1.27,1.6-1.66,2.6c-.39,1-.59,2.09-.59,3.27s.2,2.23,.59,3.24c.39,1,.94,1.88,1.66,2.62s1.56,1.31,2.53,1.72,2.03,.61,3.17,.61c1.07,0,2.09-.18,3.07-.53,.98-.35,1.89-.95,2.73-1.78l1.63,2.31c-.99,.89-2.15,1.57-3.47,2.02s-2.69,.68-4.1,.68Zm4.83-3.1v-7.91h2.75v8.3l-2.75-.39Z"/>
          <path class="cls-1" d="M576.16,252.77h11.67v2.65h-14.53v-21.28h14.13v2.65h-11.27v15.99Zm-.89-20.37l3.8-3.95h2.63l3.8,3.95h-2.49l-3.78-3.34h2.29l-3.77,3.34h-2.49Zm.63,10.91h10.3v2.58h-10.3v-2.58Z"/>
          <path class="cls-1" d="M597.61,255.41v-21.28h2.34l13.24,17.48h-1.23v-17.48h2.86v21.28h-2.34l-13.24-17.48h1.23v17.48h-2.86Z"/>
          <path class="cls-1" d="M634.93,255.65c-1.53,0-2.93-.27-4.22-.81s-2.4-1.3-3.35-2.28c-.94-.98-1.68-2.13-2.22-3.45-.53-1.32-.8-2.77-.8-4.35s.27-3.03,.8-4.35c.53-1.32,1.28-2.47,2.23-3.45,.95-.98,2.07-1.74,3.36-2.28,1.29-.54,2.69-.81,4.22-.81s2.97,.28,4.28,.84c1.31,.56,2.42,1.38,3.33,2.48l-1.86,1.92c-.76-.85-1.62-1.48-2.57-1.9-.95-.42-1.97-.62-3.06-.62s-2.17,.2-3.13,.61-1.8,.97-2.5,1.7c-.71,.73-1.25,1.6-1.64,2.6-.39,1-.59,2.09-.59,3.27s.2,2.26,.59,3.27c.39,1,.94,1.87,1.64,2.6,.71,.73,1.54,1.3,2.5,1.7s2.01,.61,3.13,.61,2.11-.21,3.06-.62c.95-.42,1.81-1.06,2.57-1.93l1.86,1.92c-.92,1.09-2.03,1.93-3.33,2.49-1.31,.57-2.74,.85-4.3,.85Z"/>
          <path class="cls-1" d="M651.8,255.41v-21.28h2.86v21.28h-2.86Z"/>
          <path class="cls-1" d="M662.78,255.41l9.07-21.28h2.83l9.09,21.28h-3l-8.09-19.58h1.14l-8.09,19.58h-2.95Zm3.86-5.32l.77-2.43h11.27l.83,2.43h-12.87Z"/>
          <path class="cls-1" d="M707.6,252.77h11.67v2.65h-14.53v-21.28h14.13v2.65h-11.27v15.99Zm-.26-9.46h10.3v2.58h-10.3v-2.58Z"/>
          <path class="cls-1" d="M729.05,255.41v-21.28h2.86v18.64h10.84v2.65h-13.7Z"/>
          <path class="cls-1" d="M754.04,252.77h11.67v2.65h-14.53v-21.28h14.13v2.65h-11.27v15.99Zm-.26-9.46h10.3v2.58h-10.3v-2.58Z"/>
          <path class="cls-1" d="M775.49,255.41v-21.28h2.86v21.28h-2.86Z"/>
          <path class="cls-1" d="M793.48,255.41v-18.64h-6.86v-2.65h16.56v2.65h-6.86v18.64h-2.83Z"/>
          <path class="cls-1" d="M820.48,255.65c-1.53,0-2.94-.27-4.25-.82-1.31-.55-2.44-1.31-3.39-2.29-.95-.98-1.7-2.13-2.23-3.45-.53-1.32-.8-2.76-.8-4.32s.27-3,.8-4.32c.53-1.32,1.28-2.47,2.23-3.45,.95-.98,2.08-1.75,3.38-2.29,1.3-.55,2.72-.82,4.26-.82s2.94,.27,4.23,.81c1.3,.54,2.42,1.3,3.37,2.28,.95,.98,1.69,2.14,2.22,3.47,.52,1.33,.79,2.77,.79,4.33s-.26,3.03-.79,4.35-1.26,2.47-2.22,3.45c-.95,.98-2.08,1.74-3.37,2.28-1.3,.54-2.71,.81-4.23,.81Zm-.03-2.71c1.12,0,2.16-.2,3.1-.61,.94-.41,1.76-.98,2.46-1.72s1.24-1.61,1.63-2.6,.59-2.08,.59-3.25-.2-2.25-.59-3.24c-.39-.98-.93-1.85-1.63-2.6-.7-.75-1.52-1.33-2.46-1.73-.94-.41-1.98-.61-3.1-.61s-2.13,.2-3.07,.61c-.94,.41-1.77,.98-2.47,1.73-.71,.75-1.25,1.62-1.64,2.6-.39,.98-.59,2.06-.59,3.24s.2,2.26,.59,3.25c.39,.99,.94,1.86,1.64,2.6,.71,.74,1.53,1.31,2.47,1.72,.94,.41,1.97,.61,3.07,.61Z"/>
          <path class="cls-1" d="M840.61,255.41v-21.28h7.81c1.75,0,3.25,.29,4.49,.88,1.24,.59,2.19,1.44,2.86,2.55,.67,1.12,1,2.44,1,3.98s-.33,2.86-1,3.97c-.67,1.11-1.62,1.95-2.86,2.54s-2.74,.88-4.49,.88h-6.23l1.29-1.4v7.87h-2.86Zm2.86-7.57l-1.29-1.49h6.15c1.83,0,3.22-.42,4.16-1.26,.94-.84,1.42-2.02,1.42-3.54s-.47-2.7-1.42-3.53c-.94-.83-2.33-1.25-4.16-1.25h-6.15l1.29-1.52v12.59Zm10.52,7.57l-5.09-7.72h3.06l5.15,7.72h-3.12Z"/>
          <path class="cls-1" d="M863.52,255.41l9.07-21.28h2.83l9.09,21.28h-3l-8.09-19.58h1.14l-8.09,19.58h-2.95Zm3.86-5.32l.77-2.43h11.27l.83,2.43h-12.87Z"/>
          <path class="cls-1" d="M892.63,255.41v-21.28h2.86v18.64h10.84v2.65h-13.7Z"/>
        </g>
      </g>
    </g>
  </g>
</svg>