<?xml version="1.0" encoding="UTF-8"?>
<svg id="Camada_2" data-name="Camada 2" xmlns="http://www.w3.org/2000/svg" viewBox="0 0 829.57 169.8">
  <defs>
    <style>
      .cls-1 {
        fill: #ff7300;
      }

      .cls-2 {
        fill: #062260;
      }
    </style>
  </defs>
  <g id="Camada_1-2" data-name="Camada 1">
    <g>
      <g>
        <path class="cls-2" d="M389.99,47.22h27.2v117.2c0,1.69-1.37,3.07-3.07,3.07h-21.06c-1.69,0-3.07-1.37-3.07-3.07V47.22h0Z"/>
        <path class="cls-2" d="M249.34,121.11c2.1,9.66,6.78,17.08,15.63,21.46,7.29,3.61,15.08,3.77,22.95,3.09,7.2-.62,13.74-3.12,19.74-7.13,.86-.58,1.86-.97,2.84-1.35,1.71-.66,3.32-.24,4.35,1.18,2.88,3.97,5.72,7.97,8.34,12.1,1.36,2.15,.7,3.94-1.23,5.56-20.44,17.12-51.61,16.85-69.89,7.03-16.47-8.85-26.24-22.66-29.55-40.89-3.05-16.79-.13-32.63,9.99-46.56,12.64-17.39,30.05-25.21,51.46-23.79,24.09,1.6,40.26,17.37,46.13,40.13,2.14,8.32,2.52,16.79,2.25,25.32-.08,2.57-1.07,3.52-3.66,3.76-.86,.08-1.74,.08-2.6,.08-24.72,0-49.44,0-74.16,0-.79,0-1.58,0-2.6,0Zm56.31-19.68c-.18-1.25-.28-2.36-.5-3.44-1.49-7.54-4.55-14.2-11.05-18.73-11.6-8.09-29.89-4.8-38.56,6.83-3.4,4.55-5.43,9.65-6.36,15.35h56.47Z"/>
        <path class="cls-2" d="M69.6,61.52c5.27-5.09,16.92-12.78,40.43-9.04,17.03,3.33,27.02,13.9,30.17,32.02,.97,5.6,1.43,11.34,1.48,17.03,.17,20.06,.07,40.12,.07,60.17,0,.62,.01,1.24-.04,1.86-.23,2.73-1.26,3.83-4,3.86-6.33,.07-12.67,.07-19,0-3.09-.03-4.15-1.33-4.15-4.88-.01-18.07,0-36.14-.02-54.21,0-3.22-.04-6.47-.37-9.67-.68-6.56-2.49-12.73-7.77-17.19-10.59-8.94-28.07-4.92-34.42,7.83-2.72,5.47-3.59,11.3-3.59,17.33,0,18.2,0,36.39,0,54.59,0,5.57-.65,6.23-6.16,6.23-5.4,0-10.81,.02-16.21,0-3.7-.02-4.81-1.09-4.82-4.78-.02-34.71-.02-69.43,0-104.14,0-3.6,1.13-4.69,4.68-4.73,0,0,15.8-.01,18.47,0,2.2,0,4.96,.35,5.09,3.32,0,0,.25,4.21,.16,4.39Z"/>
        <path class="cls-2" d="M181.01,53.81c6.83,0,13.35,0,19.87,0,3.23,0,6.46-.01,9.69,0,4.11,.02,5.04,.94,5.06,5.05,.02,4.41,0,8.82,0,13.23,0,5.33-.72,6.06-5.97,6.07-8.76,0-17.52,0-26.27,0-.73,0-1.46,0-2.38,0,0,.83,0,1.43,0,2.03,0,16.15-.05,32.3,.05,48.45,.02,3.01,.37,6.09,1.08,9.01,1.08,4.43,4.16,6.68,8.71,7.12,5.91,.57,11.46-.72,16.85-3.02,3.01-1.28,3.62-.96,4.86,2.12,1.9,4.72,3.8,9.43,5.69,14.15,1.21,3.03,.81,4.18-2.02,5.8-8.95,5.14-18.68,6.39-28.77,5.69-5.49-.38-10.79-1.59-15.73-4.12-7.85-4.02-12.72-10.48-15.4-18.75-1.96-6.03-2.5-12.26-2.51-18.56-.02-15.84,0-31.68,0-47.51,0-.73-.07-46.55,0-47.47,.15-1.96,1.22-3.05,3.16-3.29,.61-.08,1.23-.16,1.85-.16,5.4-.01,11.82-.03,17.22,0,3.94,.02,4.95,1.06,4.96,5.01,.02,5.65,0,11.3,0,16.96,0,.67,0,1.33,0,2.2Z"/>
        <path class="cls-2" d="M373.2,85.55c0,25.14,0,50.29,0,75.43,0,.74,0,1.49-.02,2.23-.09,3.01-1.18,4.19-4.21,4.22-6.27,.06-12.54,.06-18.81,0-2.91-.03-3.97-1.17-4.13-4.12-.04-.68-.02-1.37-.02-2.05,0-50.47,0-100.95,0-151.42,0-5.51,.72-6.24,6.19-6.25,5.22,0,10.43-.03,15.65,.01,4.43,.04,5.35,.99,5.35,5.39,0,25.52,0,51.03,0,76.55Z"/>
        <path class="cls-2" d="M0,91.07c0-23.1,0-46.2,0-69.3,0-.68,0-1.37,0-2.05,.06-3.56,1.14-4.65,4.74-4.66,6.09-.03,12.17-.03,18.26,0,3.76,.02,4.84,1.12,4.87,4.94,.04,5.46,.01,10.93,.01,16.39,0,41.54,0,83.09,0,124.63,0,5.77-.66,6.44-6.38,6.44-5.28,0-10.56,0-15.84,0-4.82,0-5.67-.84-5.67-5.6,0-23.6,0-47.2,0-70.79Z"/>
      </g>
      <g>
        <path class="cls-1" d="M425.87,22.32c0,12.34-10.01,22.3-22.36,22.26-12.4-.04-22.33-10.07-22.19-22.41C381.44,9.82,391.22,.06,403.53,0c12.27-.06,22.35,10.01,22.34,22.32Z"/>
        <g>
          <path class="cls-1" d="M516.51,108.46c-.05-33.47,25.39-59.02,58.86-59.11,33.51-.09,59.07,25.44,59.12,59.03,.05,33.47-25.41,59.03-58.86,59.1-33.54,.07-59.07-25.42-59.12-59.03Zm90.35-.79c-.14-1.4-.25-3.83-.63-6.21-2.49-15.56-14-27.03-30.03-27.23-11.11-.14-20.04,4.16-26.28,13.44-5.33,7.93-6.71,16.79-5.59,26.15,1.7,14.27,11.36,26.57,26.71,28.52,9.8,1.25,18.63-1.1,25.82-8.18,7.1-6.98,9.73-15.78,9.99-26.49Z"/>
          <path class="cls-1" d="M711.59,108.38c.05-33.6,25.6-59.1,59.12-59.03,33.45,.08,58.88,25.62,58.86,59.11-.03,33.57-25.61,59.11-59.13,59.02-33.47-.09-58.9-25.63-58.85-59.11Zm90.33-.8c-.12-1.27-.27-3.75-.62-6.2-2.28-15.83-14.25-26.73-30.1-27.12-11.03-.27-19.92,4.12-26.14,13.32-5.39,7.97-6.79,16.9-5.64,26.32,1.94,15.97,13.65,28.5,30.49,28.73,9.9,.13,18.18-3.36,24.46-11.14,5.33-6.61,7.36-14.35,7.56-23.9Z"/>
          <path class="cls-1" d="M672.5,51.58c6.83,0,13.35,0,19.87,0,3.23,0,6.46-.01,9.69,0,4.11,.02,5.04,.94,5.06,5.05,.02,4.41,0,8.82,0,13.23,0,5.33-.72,6.06-5.97,6.07-8.76,0-17.52,0-26.27,0-.73,0-1.46,0-2.38,0,0,.83,0,1.43,0,2.03,0,16.15-.05,32.3,.05,48.45,.02,3.01,.37,6.09,1.08,9.01,1.08,4.43,4.16,6.68,8.71,7.12,5.91,.57,11.46-.72,16.85-3.02,3.01-1.28,3.62-.96,4.86,2.12,1.9,4.72,3.8,9.43,5.69,14.15,1.21,3.03,.81,4.18-2.02,5.8-8.95,5.14-18.68,6.39-28.77,5.69-5.49-.38-10.79-1.59-15.73-4.12-7.85-4.02-12.72-10.48-15.4-18.75-1.96-6.03-2.5-12.26-2.51-18.56-.02-15.84,0-31.68,0-47.51,0-.73-.07-46.55,0-47.47,.15-1.96,1.22-3.05,3.16-3.29,.61-.08,1.23-.16,1.85-.16,5.4-.01,11.82-.03,17.22,0,3.94,.02,4.95,1.06,4.96,5.01,.02,5.65,0,11.3,0,16.96,0,.67,0,1.33,0,2.2Z"/>
        </g>
        <path class="cls-1" d="M528.21,12.83c-8.53-.03-17.05-.01-25.58,0-5.76,0-6.8,.76-8.3,6.26,0,0-28.18,108.87-28.5,110.05l-38.46-81.91h-37.38l52.46,114.98c1.32,4.3,2.71,5.27,7.23,5.28,10.5,.02,21,0,31.51,0,5.58,0,6.8-.89,8.44-6.26l42.16-143.67c1.12-3.68,.36-4.7-3.57-4.72Z"/>
      </g>
    </g>
  </g>
</svg>