<?xml version="1.0" encoding="UTF-8"?>
<svg id="Camada_2" data-name="Camada 2" xmlns="http://www.w3.org/2000/svg" viewBox="0 0 919.15 242.77">
  <defs>
    <style>
      .cls-1 {
        fill: #fff;
      }

      .cls-2 {
        fill: #ff7300;
      }

      .cls-3 {
        fill: #062260;
      }
    </style>
  </defs>
  <g id="Camada_1-2" data-name="Camada 1">
    <g>
      <rect class="cls-3" width="919.15" height="242.77"/>
      <g>
        <g>
          <path class="cls-1" d="M435.25,84.41h26.68v114.93c0,1.69-1.37,3.07-3.07,3.07h-20.55c-1.69,0-3.07-1.37-3.07-3.07V84.41h0Z"/>
          <path class="cls-1" d="M297.25,156.91c2.06,9.48,6.65,16.76,15.34,21.05,7.16,3.54,14.79,3.7,22.51,3.03,7.06-.61,13.48-3.06,19.37-6.99,.85-.57,1.83-.95,2.79-1.32,1.68-.64,3.26-.24,4.27,1.15,2.82,3.89,5.61,7.82,8.18,11.88,1.33,2.11,.69,3.86-1.21,5.45-20.05,16.79-50.64,16.53-68.57,6.9-16.16-8.68-25.74-22.24-28.99-40.12-2.99-16.47-.13-32.01,9.81-45.68,12.4-17.07,29.48-24.74,50.49-23.34,23.63,1.57,39.5,17.04,45.26,39.37,2.1,8.16,2.47,16.48,2.21,24.84-.08,2.52-1.05,3.45-3.59,3.69-.85,.08-1.7,.08-2.56,.08-24.25,0-48.51,0-72.76,0-.78,0-1.55,0-2.55,0Zm55.24-19.31c-.17-1.23-.28-2.31-.49-3.38-1.46-7.39-4.47-13.93-10.84-18.38-11.38-7.94-29.32-4.71-37.84,6.7-3.33,4.47-5.32,9.47-6.24,15.06h55.4Z"/>
          <path class="cls-1" d="M120.91,98.45c5.17-4.99,16.6-12.54,39.67-8.87,16.71,3.27,26.51,13.64,29.6,31.42,.95,5.49,1.4,11.13,1.45,16.71,.17,19.68,.07,39.36,.06,59.04,0,.61,.01,1.22-.04,1.83-.22,2.68-1.24,3.76-3.92,3.79-6.21,.06-12.43,.07-18.64,0-3.03-.03-4.07-1.3-4.07-4.78-.01-17.73,0-35.46-.02-53.19,0-3.16-.04-6.34-.36-9.49-.66-6.44-2.44-12.49-7.62-16.86-10.39-8.77-27.54-4.82-33.77,7.69-2.67,5.36-3.52,11.09-3.52,17,0,17.85,0,35.7,0,53.56,0,5.47-.64,6.12-6.05,6.12-5.3,0-10.6,.02-15.9,0-3.63-.02-4.72-1.07-4.72-4.69-.01-34.06-.02-68.12,0-102.18,0-3.53,1.11-4.6,4.59-4.64,0,0,15.5-.01,18.12,0,2.16,0,4.87,.35,4.99,3.26,0,0,.25,4.13,.16,4.31Z"/>
          <path class="cls-1" d="M230.21,90.88c6.7,0,13.1,0,19.49,0,3.17,0,6.34-.01,9.51,0,4.03,.02,4.95,.92,4.96,4.95,.02,4.33,0,8.65,0,12.98,0,5.23-.71,5.95-5.86,5.95-8.59,0-17.18,0-25.78,0-.72,0-1.43,0-2.34,0,0,.81,0,1.4,0,1.99,0,15.84-.05,31.69,.05,47.53,.02,2.95,.36,5.97,1.06,8.84,1.06,4.34,4.08,6.55,8.54,6.98,5.8,.56,11.24-.71,16.53-2.96,2.95-1.26,3.55-.95,4.77,2.08,1.86,4.63,3.73,9.25,5.58,13.89,1.18,2.97,.79,4.1-1.99,5.69-8.78,5.04-18.33,6.27-28.23,5.58-5.39-.38-10.58-1.56-15.43-4.05-7.7-3.95-12.48-10.28-15.11-18.39-1.92-5.92-2.46-12.03-2.46-18.21-.02-15.54,0-31.08,0-46.62,0-.72-.07-45.67,0-46.58,.15-1.92,1.2-2.99,3.1-3.23,.6-.07,1.21-.16,1.82-.16,5.3-.01,11.6-.03,16.9,0,3.86,.02,4.85,1.04,4.87,4.91,.02,5.55,0,11.09,0,16.64,0,.65,0,1.31,0,2.16Z"/>
          <path class="cls-1" d="M418.77,122.02c0,24.67,0,49.34,0,74.01,0,.73,0,1.46-.01,2.19-.09,2.95-1.16,4.11-4.13,4.14-6.15,.06-12.3,.06-18.46,0-2.86-.03-3.9-1.15-4.06-4.04-.04-.67-.02-1.34-.02-2.01,0-49.52,0-99.04,0-148.57,0-5.41,.71-6.13,6.08-6.13,5.12,0,10.23-.03,15.35,.01,4.34,.03,5.25,.97,5.25,5.29,0,25.04,0,50.07,0,75.11Z"/>
          <path class="cls-1" d="M52.62,127.44c0-22.67,0-45.33,0-68,0-.67,0-1.34,0-2.01,.06-3.49,1.11-4.56,4.65-4.57,5.97-.03,11.94-.03,17.91,0,3.69,.02,4.75,1.1,4.78,4.85,.04,5.36,.01,10.72,.01,16.08,0,40.76,0,81.52,0,122.28,0,5.66-.65,6.31-6.26,6.32-5.18,0-10.36,0-15.54,0-4.73,0-5.56-.82-5.56-5.5,0-23.15,0-46.31,0-69.46Z"/>
        </g>
        <g>
          <path class="cls-2" d="M470.45,59.98c0,12.11-9.82,21.88-21.94,21.84-12.16-.04-21.9-9.88-21.78-21.99,.13-12.12,9.72-21.69,21.8-21.75,12.04-.06,21.93,9.82,21.92,21.9Z"/>
          <g>
            <path class="cls-2" d="M559.38,144.49c-.05-32.84,24.91-57.91,57.75-57.99,32.88-.08,57.96,24.96,58.01,57.92,.05,32.84-24.93,57.92-57.75,57.99-32.91,.07-57.95-24.94-58-57.91Zm88.64-.77c-.14-1.38-.25-3.76-.62-6.1-2.44-15.26-13.73-26.52-29.46-26.72-10.9-.14-19.66,4.08-25.78,13.19-5.23,7.78-6.58,16.48-5.49,25.66,1.67,14,11.14,26.06,26.21,27.98,9.62,1.22,18.28-1.08,25.33-8.03,6.96-6.85,9.55-15.48,9.8-25.99Z"/>
            <path class="cls-2" d="M750.78,144.42c.05-32.96,25.11-57.99,58.01-57.91,32.82,.07,57.77,25.14,57.75,58-.03,32.94-25.13,58-58.01,57.91-32.84-.09-57.79-25.15-57.74-57.99Zm88.63-.78c-.12-1.24-.27-3.68-.61-6.08-2.23-15.53-13.99-26.23-29.53-26.61-10.82-.27-19.54,4.05-25.65,13.07-5.29,7.82-6.66,16.58-5.53,25.82,1.9,15.67,13.4,27.96,29.91,28.18,9.71,.13,17.84-3.3,23.99-10.93,5.23-6.48,7.22-14.08,7.42-23.45Z"/>
            <path class="cls-2" d="M712.43,88.69c6.7,0,13.1,0,19.49,0,3.17,0,6.34-.01,9.51,0,4.03,.02,4.95,.92,4.96,4.95,.02,4.33,0,8.65,0,12.98,0,5.23-.71,5.95-5.86,5.95-8.59,0-17.18,0-25.78,0-.72,0-1.43,0-2.34,0,0,.81,0,1.4,0,1.99,0,15.84-.05,31.69,.05,47.53,.02,2.95,.36,5.97,1.06,8.84,1.06,4.34,4.08,6.55,8.54,6.98,5.8,.56,11.24-.71,16.53-2.96,2.95-1.26,3.55-.95,4.77,2.08,1.86,4.63,3.73,9.25,5.58,13.89,1.18,2.97,.79,4.1-1.99,5.69-8.78,5.04-18.33,6.27-28.23,5.58-5.39-.38-10.58-1.56-15.43-4.05-7.7-3.95-12.48-10.28-15.11-18.39-1.92-5.92-2.46-12.03-2.46-18.21-.02-15.54,0-31.08,0-46.62,0-.72-.07-45.67,0-46.58,.15-1.92,1.2-2.99,3.1-3.23,.6-.07,1.21-.16,1.82-.16,5.3-.01,11.6-.03,16.9,0,3.86,.02,4.85,1.04,4.87,4.91,.02,5.55,0,11.09,0,16.64,0,.65,0,1.31,0,2.16Z"/>
          </g>
          <path class="cls-2" d="M570.86,50.67c-8.37-.03-16.73-.01-25.1,0-5.65,0-6.67,.75-8.14,6.14,0,0-27.65,106.82-27.96,107.98l-37.73-80.37h-36.68l51.47,112.81c1.3,4.22,2.66,5.17,7.1,5.18,10.3,.02,20.61,0,30.91,0,5.48,0,6.67-.87,8.28-6.14l41.36-140.96c1.1-3.61,.36-4.61-3.51-4.63Z"/>
        </g>
      </g>
    </g>
  </g>
</svg>