<!DOCTYPE svg PUBLIC "-//W3C//DTD SVG 1.1//EN" "http://www.w3.org/Graphics/SVG/1.1/DTD/svg11.dtd">
<!-- Uploaded to: SVG Repo, www.svgrepo.com, Transformed by: SVG Repo Mixer Tools -->
<svg height="64px" width="64px" version="1.1" id="Layer_1" xmlns="http://www.w3.org/2000/svg" xmlns:xlink="http://www.w3.org/1999/xlink" viewBox="0 0 503.322 503.322" xml:space="preserve" fill="#000000">
<g id="SVGRepo_bgCarrier" stroke-width="0"/>
<g id="SVGRepo_tracerCarrier" stroke-linecap="round" stroke-linejoin="round"/>
<g id="SVGRepo_iconCarrier"> <path style="fill:#546080;" d="M295.051,34.712V17.356C295.051,7.81,287.241,0,277.695,0h-52.068 c-9.546,0-17.356,7.81-17.356,17.356v17.356h-34.712c-5.207,0-8.678,3.471-8.678,8.678v60.746c0,5.207,3.471,8.678,8.678,8.678 h156.203c5.207,0,8.678-3.471,8.678-8.678V43.39c0-5.207-3.471-8.678-8.678-8.678H295.051z"/> <path style="fill:#eec55d;" d="M338.441,60.746v43.39c0,5.207-3.471,8.678-8.678,8.678H173.559c-5.207,0-8.678-4.339-8.678-8.678 v-43.39h-52.068c-19.092,0-34.712,15.62-34.712,34.712V468.61c0,19.092,15.62,34.712,34.712,34.712h277.695 c19.092,0,34.712-15.62,34.712-34.712V95.458c0-19.092-15.62-34.712-34.712-34.712H338.441z"/> <path style="fill:#FFFFFF;" d="M366.21,296.786l-0.868,1.736c-61.614,94.59-163.146,94.59-224.759,0l0,0l0.868-1.736 C203.064,202.197,304.597,202.197,366.21,296.786L366.21,296.786z"/> <path style="fill:#556080;" d="M302.861,276.827c0,28.637-22.563,51.2-51.2,51.2c-28.637,0-51.2-22.563-51.2-51.2 s22.563-51.2,51.2-51.2C279.431,225.627,302.861,248.19,302.861,276.827"/> <path style="fill:#8697CB;" d="M150.997,297.654c27.769,39.919,64.217,62.481,101.532,62.481c38.183,0,74.631-22.563,103.268-63.349 c-27.77-39.919-64.217-62.481-101.532-62.481C215.214,234.305,178.766,256.868,150.997,297.654 M252.529,377.492 c-45.993,0-87.647-26.902-119.756-74.63l-2.603-5.207l4.339-6.075c31.241-47.729,73.763-74.63,118.888-74.63 c45.993,0,87.647,26.902,119.756,74.63l3.471,4.339l-4.339,6.075C341.044,350.59,298.522,377.492,252.529,377.492"/> </g>
</svg>