<!DOCTYPE svg PUBLIC "-//W3C//DTD SVG 1.1//EN" "http://www.w3.org/Graphics/SVG/1.1/DTD/svg11.dtd">
<!-- Uploaded to: SVG Repo, www.svgrepo.com, Transformed by: SVG Repo Mixer Tools -->
<svg width="64px" height="64px" viewBox="0 0 1024 1024" class="icon" version="1.1" xmlns="http://www.w3.org/2000/svg" fill="#000000">
<g id="SVGRepo_bgCarrier" stroke-width="0"/>
<g id="SVGRepo_tracerCarrier" stroke-linecap="round" stroke-linejoin="round"/>
<g id="SVGRepo_iconCarrier">
<path d="M256 448m-106.666667 0a106.666667 106.666667 0 1 0 213.333334 0 106.666667 106.666667 0 1 0-213.333334 0Z" fill="#FFA726"/>
<path d="M42.666667 740.266667s59.733333-134.4 213.333333-134.4 213.333333 134.4 213.333333 134.4V810.666667H42.666667v-70.4zM981.333333 740.266667s-59.733333-134.4-213.333333-134.4-213.333333 134.4-213.333333 134.4V810.666667h426.666666v-70.4z" fill="#455A64"/>
<path d="M512 362.666667m-128 0a128 128 0 1 0 256 0 128 128 0 1 0-256 0Z" fill="#FFB74D"/>
<path d="M768 727.466667s-70.4-160-256-160-256 160-256 160V810.666667h512v-83.2z" fill="#607D8B"/>
<path d="M768 448m-106.666667 0a106.666667 106.666667 0 1 0 213.333334 0 106.666667 106.666667 0 1 0-213.333334 0Z" fill="#FFA726"/>
<path d="M256 448m-106.666667 0a106.666667 106.666667 0 1 0 213.333334 0 106.666667 106.666667 0 1 0-213.333334 0Z" fill="#FFA726"/>
<path d="M768 448m-106.666667 0a106.666667 106.666667 0 1 0 213.333334 0 106.666667 106.666667 0 1 0-213.333334 0Z" fill="#FFA726"/>
</g>
</svg>