<!DOCTYPE svg PUBLIC "-//W3C//DTD SVG 1.1//EN" "http://www.w3.org/Graphics/SVG/1.1/DTD/svg11.dtd">
<!-- Uploaded to: SVG Repo, www.svgrepo.com, Transformed by: SVG Repo Mixer Tools -->
<svg version="1.1" id="Layer_1" xmlns="http://www.w3.org/2000/svg" xmlns:xlink="http://www.w3.org/1999/xlink" viewBox="0 0 512 512" xml:space="preserve" width="64px" height="64px" fill="#000000">
<g id="SVGRepo_bgCarrier" stroke-width="0"/>
<g id="SVGRepo_tracerCarrier" stroke-linecap="round" stroke-linejoin="round"/>
<g id="SVGRepo_iconCarrier"> <g> <polygon style="fill:#0BA4E0;" points="438.88,311.776 422.88,311.776 422.88,264 89.12,264 89.12,311.776 73.12,311.776 73.12,248 438.88,248 "/> <rect x="248" y="200.224" style="fill:#0BA4E0;" width="16" height="47.776"/> </g> <ellipse style="fill:#D6D6D6;" cx="81.904" cy="381.28" rx="42.8" ry="43.248"/> <path style="fill:#0BA4E0;" d="M155.824,512c0-41.248-33.088-74.688-73.904-74.688S8,470.752,8,512H155.824z"/> <ellipse style="fill:#D6D6D6;" cx="256" cy="43.248" rx="42.8" ry="43.248"/> <path style="fill:#0BA4E0;" d="M329.904,173.984c0-41.248-33.088-74.688-73.904-74.688s-73.904,33.44-73.904,74.688H329.904z"/> <ellipse style="fill:#D6D6D6;" cx="430.096" cy="381.28" rx="42.8" ry="43.248"/> <path style="fill:#0BA4E0;" d="M504,512c0-41.248-33.088-74.688-73.904-74.688s-73.904,33.44-73.904,74.688H504z"/> </g>
</svg>